<svg xmlns="http://www.w3.org/2000/svg" width="1100" height="900" viewBox="0 0 1100 900">
  <rect width="1100" height="900" fill="#f7f7f9"/>
  <text x="40" y="48" font-family="Arial, sans-serif" font-size="30" font-weight="700" fill="#111">Raspberry Pi 5 -> MAX98357A I2S Audio Wiring</text>
  <text x="40" y="82" font-family="Arial, sans-serif" font-size="17" fill="#555">Use physical pin numbers on the 40-pin header. GPIO names are shown next to the highlighted pins.</text>

  <rect x="50" y="120" width="470" height="720" rx="16" fill="#ffffff" stroke="#d2d2d8"/>
  <text x="80" y="158" font-family="Arial, sans-serif" font-size="22" font-weight="700" fill="#111">Raspberry Pi 40-pin header</text>
  <text x="97" y="190" font-family="Arial, sans-serif" font-size="14" fill="#777">Odd pins</text>
  <text x="335" y="190" font-family="Arial, sans-serif" font-size="14" fill="#777">Even pins</text>

  <g font-family="Arial, sans-serif" font-size="13" fill="#333" text-anchor="middle">
    <script type="application/ecmascript"><![CDATA[]]></script>
    <!-- Header circles and pin numbers -->
    <g id="pins">
      <circle cx="130" cy="220" r="14" fill="#ddd" stroke="#999"/><text x="130" y="225">1</text>
      <circle cx="370" cy="220" r="14" fill="#e85050" stroke="#9c2020"/><text x="370" y="225" fill="#fff">2</text>
      <circle cx="130" cy="250" r="14" fill="#ddd" stroke="#999"/><text x="130" y="255">3</text>
      <circle cx="370" cy="250" r="14" fill="#e85050" stroke="#9c2020"/><text x="370" y="255" fill="#fff">4</text>
      <circle cx="130" cy="280" r="14" fill="#ddd" stroke="#999"/><text x="130" y="285">5</text>
      <circle cx="370" cy="280" r="14" fill="#333" stroke="#111"/><text x="370" y="285" fill="#fff">6</text>
      <circle cx="130" cy="310" r="14" fill="#ddd" stroke="#999"/><text x="130" y="315">7</text>
      <circle cx="370" cy="310" r="14" fill="#ddd" stroke="#999"/><text x="370" y="315">8</text>
      <circle cx="130" cy="340" r="14" fill="#ddd" stroke="#999"/><text x="130" y="345">9</text>
      <circle cx="370" cy="340" r="14" fill="#ddd" stroke="#999"/><text x="370" y="345">10</text>
      <circle cx="130" cy="370" r="14" fill="#ddd" stroke="#999"/><text x="130" y="375">11</text>
      <circle cx="370" cy="370" r="14" fill="#2d7ff9" stroke="#174a9b"/><text x="370" y="375" fill="#fff">12</text>
      <circle cx="130" cy="400" r="14" fill="#ddd" stroke="#999"/><text x="130" y="405">13</text>
      <circle cx="370" cy="400" r="14" fill="#ddd" stroke="#999"/><text x="370" y="405">14</text>
      <circle cx="130" cy="430" r="14" fill="#ddd" stroke="#999"/><text x="130" y="435">15</text>
      <circle cx="370" cy="430" r="14" fill="#ddd" stroke="#999"/><text x="370" y="435">16</text>
      <circle cx="130" cy="460" r="14" fill="#ddd" stroke="#999"/><text x="130" y="465">17</text>
      <circle cx="370" cy="460" r="14" fill="#ddd" stroke="#999"/><text x="370" y="465">18</text>
      <circle cx="130" cy="490" r="14" fill="#ddd" stroke="#999"/><text x="130" y="495">19</text>
      <circle cx="370" cy="490" r="14" fill="#ddd" stroke="#999"/><text x="370" y="495">20</text>
      <circle cx="130" cy="520" r="14" fill="#ddd" stroke="#999"/><text x="130" y="525">21</text>
      <circle cx="370" cy="520" r="14" fill="#ddd" stroke="#999"/><text x="370" y="525">22</text>
      <circle cx="130" cy="550" r="14" fill="#ddd" stroke="#999"/><text x="130" y="555">23</text>
      <circle cx="370" cy="550" r="14" fill="#ddd" stroke="#999"/><text x="370" y="555">24</text>
      <circle cx="130" cy="580" r="14" fill="#ddd" stroke="#999"/><text x="130" y="585">25</text>
      <circle cx="370" cy="580" r="14" fill="#ddd" stroke="#999"/><text x="370" y="585">26</text>
      <circle cx="130" cy="610" r="14" fill="#ddd" stroke="#999"/><text x="130" y="615">27</text>
      <circle cx="370" cy="610" r="14" fill="#ddd" stroke="#999"/><text x="370" y="615">28</text>
      <circle cx="130" cy="640" r="14" fill="#ddd" stroke="#999"/><text x="130" y="645">29</text>
      <circle cx="370" cy="640" r="14" fill="#ddd" stroke="#999"/><text x="370" y="645">30</text>
      <circle cx="130" cy="670" r="14" fill="#ddd" stroke="#999"/><text x="130" y="675">31</text>
      <circle cx="370" cy="670" r="14" fill="#ddd" stroke="#999"/><text x="370" y="675">32</text>
      <circle cx="130" cy="700" r="14" fill="#ddd" stroke="#999"/><text x="130" y="705">33</text>
      <circle cx="370" cy="700" r="14" fill="#ddd" stroke="#999"/><text x="370" y="705">34</text>
      <circle cx="130" cy="730" r="14" fill="#20a66b" stroke="#126540"/><text x="130" y="735" fill="#fff">35</text>
      <circle cx="370" cy="730" r="14" fill="#ddd" stroke="#999"/><text x="370" y="735">36</text>
      <circle cx="130" cy="760" r="14" fill="#ddd" stroke="#999"/><text x="130" y="765">37</text>
      <circle cx="370" cy="760" r="14" fill="#ddd" stroke="#999"/><text x="370" y="765">38</text>
      <circle cx="130" cy="790" r="14" fill="#ddd" stroke="#999"/><text x="130" y="795">39</text>
      <circle cx="370" cy="790" r="14" fill="#f39b2f" stroke="#9a5a11"/><text x="370" y="795" fill="#fff">40</text>
    </g>
  </g>

  <g font-family="Arial, sans-serif" font-size="14" fill="#333">
    <text x="392" y="225" fill="#b02020">5V</text>
    <text x="392" y="255" fill="#b02020">5V alternative</text>
    <text x="392" y="285" fill="#111">GND</text>
    <text x="392" y="375" fill="#174a9b">GPIO18 / PCM_CLK / BCLK</text>
    <text x="152" y="735" fill="#126540">GPIO19 / PCM_FS / LRC</text>
    <text x="392" y="795" fill="#9a5a11">GPIO21 / PCM_DOUT / DIN</text>
  </g>

  <rect x="700" y="245" width="300" height="330" rx="18" fill="#ffffff" stroke="#d2d2d8"/>
  <text x="745" y="292" font-family="Arial, sans-serif" font-size="26" font-weight="700" fill="#111">MAX98357A</text>
  <text x="744" y="320" font-family="Arial, sans-serif" font-size="15" fill="#666">I2S mono amplifier</text>

  <g font-family="Arial, sans-serif" font-size="18" fill="#111">
    <rect x="735" y="355" width="210" height="36" rx="8" fill="#fee3e3"/><text x="755" y="379">VIN  -> 5V</text>
    <rect x="735" y="405" width="210" height="36" rx="8" fill="#e8e8e8"/><text x="755" y="429">GND -> GND</text>
    <rect x="735" y="455" width="210" height="36" rx="8" fill="#e2efff"/><text x="755" y="479">BCLK -> GPIO18</text>
    <rect x="735" y="505" width="210" height="36" rx="8" fill="#dff6eb"/><text x="755" y="529">LRC  -> GPIO19</text>
    <rect x="735" y="555" width="210" height="36" rx="8" fill="#fff0dc"/><text x="755" y="579">DIN  -> GPIO21</text>
  </g>

  <g fill="none" stroke-width="4" stroke-linecap="round">
    <path d="M384 250 C560 250, 590 365, 735 373" stroke="#e85050"/>
    <path d="M384 280 C560 280, 590 415, 735 423" stroke="#333"/>
    <path d="M384 370 C555 370, 590 465, 735 473" stroke="#2d7ff9"/>
    <path d="M144 730 C455 730, 590 515, 735 523" stroke="#20a66b"/>
    <path d="M384 790 C590 790, 625 565, 735 573" stroke="#f39b2f"/>
  </g>

  <rect x="610" y="640" width="410" height="150" rx="14" fill="#fff" stroke="#ddd"/>
  <text x="635" y="675" font-family="Arial, sans-serif" font-size="18" font-weight="700" fill="#111">Quick table</text>
  <text x="635" y="705" font-family="Arial, sans-serif" font-size="16" fill="#333">Pi physical pin 2 or 4  -> MAX98357A VIN</text>
  <text x="635" y="730" font-family="Arial, sans-serif" font-size="16" fill="#333">Pi physical pin 6       -> MAX98357A GND</text>
  <text x="635" y="755" font-family="Arial, sans-serif" font-size="16" fill="#333">Pi physical pin 12      -> MAX98357A BCLK</text>
  <text x="635" y="780" font-family="Arial, sans-serif" font-size="16" fill="#333">Pi physical pin 35      -> MAX98357A LRC</text>
  <text x="635" y="805" font-family="Arial, sans-serif" font-size="16" fill="#333">Pi physical pin 40      -> MAX98357A DIN</text>
</svg>
